:SAMPLES-PER-SECOND 30
:FRAME-RANGE 1-663
:FULLY-SPECIFIED
:DEGREES
498
root  35.9144 39.8174 -77.9711 -179.336 -41.8862 -179.141
RightUpLeg  -6.7927 -23.8032 -4.4335
RightLeg  41.7832 -9.32489 -9.09283
RightFoot  -11.9347 -0.00315333 15.0451
RightToes  2.91037e-010 0 -3.6325e-017
Spine  10.6203 7.11265 5.98486
Spine1  -0.418073 10.9653 -17.1813
HEad  8.45837 4.12245 3.43309
LeftShoulder1  1.12233 0.331246 -29.2909
LeftArm  -14.8989 -0.614511 -17.6278
LeftForeArm  -6.43676 -64.6492 -25.7165
LeftHand  -0.223965 6.50175 -17.265
RightShoulder  17.6891 31.0153 44.3677
RightArm  -7.16921 21.7605 21.1698
RightForeArm  -23.3947 34.8083 9.02725
RightHand  1.23988 0.259247 25.1561
LeftUpLeg  -13.3798 4.95391 -2.0159
LeftLeg  14.0218 -12.347 -5.0372
LeftFoot  -2.05741 0.0984759 -1.05179
LeftToes  -4.9116e-011 5.71383e-011 -3.31847e-011
499
root  35.7091 39.8977 -78.2773 -179.81 -41.5557 -178.711
RightUpLeg  -9.02087 -23.4269 -5.60394
RightLeg  46.0882 -9.75793 -10.9802
RightFoot  -12.2004 0.0197554 13.6763
RightToes  2.91037e-010 0 -3.6325e-017
Spine  10.6212 6.85614 5.83265
Spine1  -0.374968 10.5614 -16.6258
HEad  10.0968 1.84837 4.28002
LeftShoulder1  1.09894 0.415891 -29.5057
LeftArm  -13.5098 2.26034 -18.2709
LeftForeArm  -2.34642 -67.8727 -30.2913
LeftHand  -0.31213 7.10685 -16.7974
RightShoulder  16.9901 29.3971 44.7899
RightArm  -8.96383 19.9636 20.1277
RightForeArm  -20.7893 38.6828 10.1231
RightHand  1.07074 -0.50718 25.2904
LeftUpLeg  -12.2694 5.5785 -1.31593
LeftLeg  13.5567 -12.5755 -5.37623
LeftFoot  -2.34071 0.0840354 -0.839257
LeftToes  -4.9116e-011 5.71383e-011 -3.31847e-011
500
root  35.5255 39.9483 -78.5722 179.89 -40.9725 -178.584
RightUpLeg  -11.159 -22.7915 -6.9801
RightLeg  48.9062 -8.87883 -11.0664
RightFoot  -12.24 0.0238509 13.6269
RightToes  2.91037e-010 0 -3.6325e-017
Spine  10.6269 6.64717 5.59305
Spine1  -0.272095 10.2705 -16.4682
HEad  11.5735 -0.518063 5.1317
LeftShoulder1  1.0931 0.445907 -29.6662
LeftArm  -12.3492 4.45265 -19.3768
LeftForeArm  3.03746 -70.6629 -35.6366
LeftHand  -0.385419 7.64112 -16.3648
RightShoulder  15.9729 27.4958 44.7487
RightArm  -10.0096 17.7815 19.3989
RightForeArm  -19.515 42.2612 11.3239
RightHand  0.969624 -0.94397 25.271
LeftUpLeg  -11.2388 5.63782 -0.830715
LeftLeg  13.2493 -12.1708 -5.42972
LeftFoot  -2.91168 0.0965433 -1.06862
LeftToes  -4.9116e-011 5.71383e-011 -3.31847e-011
501
root  35.3487 39.9961 -78.9142 179.408 -39.9175 -178.22
RightUpLeg  -13.0848 -21.8384 -7.86832
RightLeg  50.0883 -8.13337 -10.6187
RightFoot  -12.2576 0.0273804 13.8187
RightToes  2.91037e-010 0 -3.6325e-017
Spine  10.4322 6.54848 5.10874
Spine1  -0.218175 9.95636 -15.8098
HEad  13.1038 -2.63123 5.5799
LeftShoulder1  1.0893 0.482468 -29.977
LeftArm  -11.4498 6.72314 -20.5956
LeftForeArm  10.1154 -73.1057 -42.0921
LeftHand  -0.435203 8.04291 -15.9329
RightShoulder  14.9354 25.4086 44.9307
RightArm  -10.0305 15.6531 18.0274
RightForeArm  -19.0654 45.4489 12.5732
RightHand  0.887361 -1.36231 25.6537
LeftUpLeg  -10.1183 6.22279 -0.0129731
LeftLeg  13.061 -11.8172 -5.62797
LeftFoot  -3.69068 0.101798 -1.19038
LeftToes  -4.9116e-011 5.71383e-011 -3.31847e-011
502
root  35.1905 40.039 -79.2565 179.079 -38.5971 -177.899
RightUpLeg  -15.0197 -20.7568 -8.4446
RightLeg  49.619 -7.58784 -9.78556
RightFoot  -12.0495 0.00253788 13.6511
RightToes  2.91037e-010 0 -3.6325e-017
Spine  10.3861 6.32507 4.6114
Spine1  -0.476711 9.5209 -15.2725
HEad  14.1425 -4.33202 5.65691
LeftShoulder1  1.08627 0.508689 -30.1938
LeftArm  -10.5317 8.81918 -21.8804
LeftForeArm  18.2438 -75.0988 -49.6859
LeftHand  -0.473833 8.40198 -15.4306
RightShoulder  13.8436 23.3343 44.9159
RightArm  -10.4646 13.2844 17.0576
RightForeArm  -18.6061 48.4368 13.9003
RightHand  0.781039 -1.85926 25.958
LeftUpLeg  -9.04427 6.61294 0.692364
LeftLeg  12.6781 -11.0078 -5.49537
LeftFoot  -4.39511 0.109791 -1.37348
LeftToes  -4.9116e-011 5.71383e-011 -3.31847e-011
503
root  35.0613 40.0599 -79.6265 178.995 -37.1274 -177.683
RightUpLeg  -16.9206 -20.2082 -8.66773
RightLeg  47.5698 -7.36763 -8.86402
RightFoot  -11.7643 -0.0299033 13.5817
RightToes  2.91037e-010 0 -3.6325e-017
Spine  9.74938 5.99459 3.74861
Spine1  -0.228185 8.9648 -14.4497
HEad  14.5976 -5.08585 5.64519
LeftShoulder1  1.10301 0.489058 -30.517
LeftArm  -9.79792 10.2064 -23.1055
LeftForeArm  24.8278 -76.2244 -55.595
LeftHand  -0.475601 8.4477 -15.2641
RightShoulder  12.7875 21.3229 44.8933
RightArm  -11.0716 11.0641 16.3627
RightForeArm  -17.5672 51.3992 15.3717
RightHand  0.811745 -1.57785 24.9101
LeftUpLeg  -8.26477 7.10791 1.32384
LeftLeg  12.6069 -10.2215 -5.32156
LeftFoot  -5.36183 0.126646 -1.80788
LeftToes  -4.9116e-011 5.71383e-011 -3.31847e-011
504
root  34.9098 40.1083 -79.9736 178.683 -36.2191 -177.505
RightUpLeg  -17.7251 -20.1283 -8.77076
RightLeg  43.1345 -6.95811 -7.21597
RightFoot  -11.3482 -0.0766067 13.7517
RightToes  2.91037e-010 0 -3.6325e-017
Spine  9.54634 5.16921 3.14147
Spine1  -0.0855479 7.94416 -13.5282
HEad  14.7612 -5.43452 5.41742
LeftShoulder1  1.12865 0.446523 -30.8501
LeftArm  -9.05175 10.8782 -24.2984
LeftForeArm  30.8267 -76.9871 -60.7208
LeftHand  -0.472524 8.5367 -14.7303
RightShoulder  11.974 19.616 45.1865
RightArm  -11.1422 9.67343 14.9669
RightForeArm  -16.4214 53.131 16.3039
RightHand  0.971307 -0.925087 25.2048
LeftUpLeg  -7.05552 7.45148 1.81113
LeftLeg  12.114 -9.90391 -5.10269
LeftFoot  -5.94521 0.13563 -2.12021
LeftToes  -4.9116e-011 5.71383e-011 -3.31847e-011
505
root  34.7989 40.1907 -80.3468 179.051 -34.0988 -177.572
RightUpLeg  -18.7082 -19.6578 -8.17979
RightLeg  36.5453 -7.33391 -6.05064
RightFoot  -9.82536 -0.251327 13.863
RightToes  2.91037e-010 0 -3.6325e-017
Spine  8.5564 4.84791 2.24937
Spine1  0.14326 7.40136 -12.2651
HEad  14.8692 -5.1268 5.13153
LeftShoulder1  1.15289 0.385515 -30.9064
LeftArm  -8.08334 10.8128 -25.4658
LeftForeArm  32.6562 -77.1253 -61.4752
LeftHand  -0.449989 8.36106 -14.7803
RightShoulder  11.1177 17.8157 45.5414
RightArm  -11.5751 8.24001 14.0163
RightForeArm  -17.3834 54.7136 17.3728
RightHand  0.638799 -2.45969 25.9424
LeftUpLeg  -5.91218 7.90546 2.28309
LeftLeg  10.799 -8.59985 -4.83079
LeftFoot  -6.07327 0.148338 -2.4315
LeftToes  -4.9116e-011 5.71383e-011 -3.31847e-011
506
root  34.6476 40.2569 -80.6975 179.365 -32.4585 -177.9
RightUpLeg  -18.8424 -21.0509 -7.51853
RightLeg  28.5569 -8.83588 -5.39683
RightFoot  -7.62447 -0.476071 13.0148
RightToes  2.91037e-010 0 -3.6325e-017
Spine  7.89643 4.10727 1.72489
Spine1  0.304719 6.50966 -11.3301
HEad  15.4121 -4.57202 4.84964
LeftShoulder1  1.17931 0.320572 -30.9839
LeftArm  -7.0275 9.8876 -26.5183
LeftForeArm  30.0602 -76.7219 -58.0893
LeftHand  -0.402073 7.96175 -15.0542
RightShoulder  10.3781 16.3564 45.6606
RightArm  -12.4392 6.63544 13.278
RightForeArm  -15.4829 55.6361 17.8707
RightHand  0.668218 -2.6259 28.7264
LeftUpLeg  -4.55434 7.71842 2.14767
LeftLeg  9.33148 -7.00611 -4.16421
LeftFoot  -6.04862 0.15355 -2.53616
LeftToes  -4.9116e-011 5.71383e-011 -3.31847e-011
507
root  34.5263 40.2924 -81.119 179.535 -29.8014 -178.045
RightUpLeg  -18.3082 -22.7083 -5.84495
RightLeg  19.1565 -9.4633 -3.83817
RightFoot  -6.2408 -0.617245 12.8502
RightToes  2.91037e-010 0 -3.6325e-017
Spine  7.28267 3.71337 1.63211
Spine1  0.38839 6.05296 -10.8074
HEad  15.8839 -3.37442 4.46921
LeftShoulder1  1.23644 0.183041 -31.1731
LeftArm  -5.75694 8.50896 -27.025
LeftForeArm  26.336 -76.0549 -53.6047
LeftHand  -0.378125 7.81806 -14.8795
RightShoulder  9.78776 15.1805 45.7921
RightArm  -13.6276 4.96931 12.8229
RightForeArm  -14.9224 56.3292 18.3248
RightHand  0.552843 -3.18771 30.349
LeftUpLeg  -3.14057 7.96242 2.38811
LeftLeg  8.29113 -4.89543 -3.67564
LeftFoot  -6.56205 0.164294 -2.99289
LeftToes  -4.9116e-011 5.71383e-011 -3.31847e-011
508
root  34.4186 40.2628 -81.5914 179.613 -27.0712 -178.34
RightUpLeg  -16.4317 -20.1618 -6.04784
RightLeg  9.65063 -15.2176 -0.179383
RightFoot  -4.0494 -0.820186 12.3917
RightToes  2.91037e-010 0 -3.6325e-017
Spine  6.79132 3.30674 1.43559
Spine1  0.617213 5.586 -10.3357
HEad  16.0614 -2.04589 4.02172
LeftShoulder1  1.31297 0.0045356 -31.465
LeftArm  -4.73583 6.57837 -27.4311
LeftForeArm  20.8712 -74.8953 -47.7371
LeftHand  -0.333641 7.44272 -15.2415
RightShoulder  9.17444 14.0767 45.6236
RightArm  -14.2764 3.42527 12.9684
RightForeArm  -13.5211 56.983 18.7063
RightHand  0.53993 -3.18825 29.7008
LeftUpLeg  -1.75582 8.37748 2.51332
LeftLeg  7.86464 -2.68776 -3.43762
LeftFoot  -7.11064 0.13836 -2.5901
LeftToes  -4.9116e-011 5.71383e-011 -3.31847e-011
